<mxfile host="Electron" agent="Mozilla/5.0 (Windows NT 10.0; Win64; x64) AppleWebKit/537.36 (KHTML, like Gecko) draw.io/28.2.5 Chrome/138.0.7204.251 Electron/37.6.1 Safari/537.36" version="28.2.5">
  <diagram id="C5RBs43oDa-KdzZeNtuy" name="Page-1">
    <mxGraphModel dx="784" dy="861" grid="1" gridSize="10" guides="1" tooltips="1" connect="1" arrows="1" fold="1" page="1" pageScale="1" pageWidth="827" pageHeight="1169" math="0" shadow="0">
      <root>
        <mxCell id="WIyWlLk6GJQsqaUBKTNV-0" />
        <mxCell id="WIyWlLk6GJQsqaUBKTNV-1" parent="WIyWlLk6GJQsqaUBKTNV-0" />
        <mxCell id="_-viLAe0_29VRJoz3KLx-4" value="" style="edgeStyle=orthogonalEdgeStyle;rounded=0;orthogonalLoop=1;jettySize=auto;html=1;" edge="1" parent="WIyWlLk6GJQsqaUBKTNV-1" source="_-viLAe0_29VRJoz3KLx-0" target="_-viLAe0_29VRJoz3KLx-1">
          <mxGeometry relative="1" as="geometry" />
        </mxCell>
        <mxCell id="_-viLAe0_29VRJoz3KLx-0" value="Algus" style="ellipse;whiteSpace=wrap;html=1;" vertex="1" parent="WIyWlLk6GJQsqaUBKTNV-1">
          <mxGeometry x="354" y="20" width="120" height="50" as="geometry" />
        </mxCell>
        <mxCell id="_-viLAe0_29VRJoz3KLx-6" value="" style="edgeStyle=orthogonalEdgeStyle;rounded=0;orthogonalLoop=1;jettySize=auto;html=1;" edge="1" parent="WIyWlLk6GJQsqaUBKTNV-1" source="_-viLAe0_29VRJoz3KLx-1" target="_-viLAe0_29VRJoz3KLx-5">
          <mxGeometry relative="1" as="geometry" />
        </mxCell>
        <mxCell id="_-viLAe0_29VRJoz3KLx-1" value="Kuva kasutajale tekst &quot;Joonistan sulle kolmnurga&quot;" style="shape=parallelogram;perimeter=parallelogramPerimeter;whiteSpace=wrap;html=1;fixedSize=1;" vertex="1" parent="WIyWlLk6GJQsqaUBKTNV-1">
          <mxGeometry x="334" y="120" width="159" height="60" as="geometry" />
        </mxCell>
        <mxCell id="_-viLAe0_29VRJoz3KLx-8" value="" style="edgeStyle=orthogonalEdgeStyle;rounded=0;orthogonalLoop=1;jettySize=auto;html=1;" edge="1" parent="WIyWlLk6GJQsqaUBKTNV-1" source="_-viLAe0_29VRJoz3KLx-5" target="_-viLAe0_29VRJoz3KLx-7">
          <mxGeometry relative="1" as="geometry" />
        </mxCell>
        <mxCell id="_-viLAe0_29VRJoz3KLx-5" value="Tekitame muutuja nimega &quot;kolmnurgasuurus&quot; kuhu tuleb käsurealt täisarv" style="shape=parallelogram;perimeter=parallelogramPerimeter;whiteSpace=wrap;html=1;fixedSize=1;" vertex="1" parent="WIyWlLk6GJQsqaUBKTNV-1">
          <mxGeometry x="334" y="220" width="159" height="60" as="geometry" />
        </mxCell>
        <mxCell id="_-viLAe0_29VRJoz3KLx-10" value="" style="edgeStyle=orthogonalEdgeStyle;rounded=0;orthogonalLoop=1;jettySize=auto;html=1;" edge="1" parent="WIyWlLk6GJQsqaUBKTNV-1" source="_-viLAe0_29VRJoz3KLx-7" target="_-viLAe0_29VRJoz3KLx-9">
          <mxGeometry relative="1" as="geometry" />
        </mxCell>
        <mxCell id="_-viLAe0_29VRJoz3KLx-7" value="Ootab kasutajalt sisendit" style="whiteSpace=wrap;html=1;" vertex="1" parent="WIyWlLk6GJQsqaUBKTNV-1">
          <mxGeometry x="354" y="330" width="120" height="60" as="geometry" />
        </mxCell>
        <mxCell id="_-viLAe0_29VRJoz3KLx-11" style="edgeStyle=orthogonalEdgeStyle;rounded=0;orthogonalLoop=1;jettySize=auto;html=1;exitX=1;exitY=0.5;exitDx=0;exitDy=0;entryX=1;entryY=0.5;entryDx=0;entryDy=0;" edge="1" parent="WIyWlLk6GJQsqaUBKTNV-1" source="_-viLAe0_29VRJoz3KLx-9" target="_-viLAe0_29VRJoz3KLx-7">
          <mxGeometry relative="1" as="geometry" />
        </mxCell>
        <mxCell id="_-viLAe0_29VRJoz3KLx-12" value="Ei" style="edgeLabel;html=1;align=center;verticalAlign=middle;resizable=0;points=[];" vertex="1" connectable="0" parent="_-viLAe0_29VRJoz3KLx-11">
          <mxGeometry x="0.027" y="1" relative="1" as="geometry">
            <mxPoint as="offset" />
          </mxGeometry>
        </mxCell>
        <mxCell id="_-viLAe0_29VRJoz3KLx-14" value="" style="edgeStyle=orthogonalEdgeStyle;rounded=0;orthogonalLoop=1;jettySize=auto;html=1;" edge="1" parent="WIyWlLk6GJQsqaUBKTNV-1" source="_-viLAe0_29VRJoz3KLx-9" target="_-viLAe0_29VRJoz3KLx-13">
          <mxGeometry relative="1" as="geometry" />
        </mxCell>
        <mxCell id="_-viLAe0_29VRJoz3KLx-9" value="Kas kasutja on sisestanud täisarvu" style="rhombus;whiteSpace=wrap;html=1;" vertex="1" parent="WIyWlLk6GJQsqaUBKTNV-1">
          <mxGeometry x="356" y="430" width="116" height="80" as="geometry" />
        </mxCell>
        <mxCell id="_-viLAe0_29VRJoz3KLx-16" value="" style="edgeStyle=orthogonalEdgeStyle;rounded=0;orthogonalLoop=1;jettySize=auto;html=1;" edge="1" parent="WIyWlLk6GJQsqaUBKTNV-1" source="_-viLAe0_29VRJoz3KLx-13" target="_-viLAe0_29VRJoz3KLx-15">
          <mxGeometry relative="1" as="geometry" />
        </mxCell>
        <mxCell id="_-viLAe0_29VRJoz3KLx-13" value="Tekitame tsüklimuutuja &quot;i&quot; mille algväärtus on 1." style="shape=parallelogram;perimeter=parallelogramPerimeter;whiteSpace=wrap;html=1;fixedSize=1;" vertex="1" parent="WIyWlLk6GJQsqaUBKTNV-1">
          <mxGeometry x="354" y="555" width="120" height="60" as="geometry" />
        </mxCell>
        <mxCell id="_-viLAe0_29VRJoz3KLx-18" value="" style="edgeStyle=orthogonalEdgeStyle;rounded=0;orthogonalLoop=1;jettySize=auto;html=1;" edge="1" parent="WIyWlLk6GJQsqaUBKTNV-1" source="_-viLAe0_29VRJoz3KLx-15" target="_-viLAe0_29VRJoz3KLx-17">
          <mxGeometry relative="1" as="geometry" />
        </mxCell>
        <mxCell id="_-viLAe0_29VRJoz3KLx-19" value="Jah" style="edgeLabel;html=1;align=center;verticalAlign=middle;resizable=0;points=[];" vertex="1" connectable="0" parent="_-viLAe0_29VRJoz3KLx-18">
          <mxGeometry x="-0.2" y="-1" relative="1" as="geometry">
            <mxPoint as="offset" />
          </mxGeometry>
        </mxCell>
        <mxCell id="_-viLAe0_29VRJoz3KLx-33" style="edgeStyle=orthogonalEdgeStyle;rounded=0;orthogonalLoop=1;jettySize=auto;html=1;exitX=0;exitY=0.5;exitDx=0;exitDy=0;entryX=0;entryY=0.5;entryDx=0;entryDy=0;" edge="1" parent="WIyWlLk6GJQsqaUBKTNV-1" source="_-viLAe0_29VRJoz3KLx-15" target="_-viLAe0_29VRJoz3KLx-32">
          <mxGeometry relative="1" as="geometry">
            <Array as="points">
              <mxPoint x="260" y="700" />
              <mxPoint x="260" y="1495" />
            </Array>
          </mxGeometry>
        </mxCell>
        <mxCell id="_-viLAe0_29VRJoz3KLx-15" value="Kas &quot;i&quot; on väiksem või võrdne kui kasutaja sisestatud &quot;kolmnurgasuurus&quot;?" style="rhombus;whiteSpace=wrap;html=1;" vertex="1" parent="WIyWlLk6GJQsqaUBKTNV-1">
          <mxGeometry x="331" y="660" width="166" height="80" as="geometry" />
        </mxCell>
        <mxCell id="_-viLAe0_29VRJoz3KLx-21" value="" style="edgeStyle=orthogonalEdgeStyle;rounded=0;orthogonalLoop=1;jettySize=auto;html=1;" edge="1" parent="WIyWlLk6GJQsqaUBKTNV-1" source="_-viLAe0_29VRJoz3KLx-17" target="_-viLAe0_29VRJoz3KLx-20">
          <mxGeometry relative="1" as="geometry" />
        </mxCell>
        <mxCell id="_-viLAe0_29VRJoz3KLx-17" value="Tekitme tühja rea&lt;div&gt;konsooli, kasutades&lt;/div&gt;&lt;div&gt;&amp;nbsp;käsklust Console.WriteLine&lt;/div&gt;&lt;div&gt;&amp;nbsp;ilma parameetrita&lt;/div&gt;" style="shape=parallelogram;perimeter=parallelogramPerimeter;whiteSpace=wrap;html=1;fixedSize=1;" vertex="1" parent="WIyWlLk6GJQsqaUBKTNV-1">
          <mxGeometry x="300" y="780" width="226" height="60" as="geometry" />
        </mxCell>
        <mxCell id="_-viLAe0_29VRJoz3KLx-23" value="" style="edgeStyle=orthogonalEdgeStyle;rounded=0;orthogonalLoop=1;jettySize=auto;html=1;" edge="1" parent="WIyWlLk6GJQsqaUBKTNV-1" source="_-viLAe0_29VRJoz3KLx-20" target="_-viLAe0_29VRJoz3KLx-22">
          <mxGeometry relative="1" as="geometry" />
        </mxCell>
        <mxCell id="_-viLAe0_29VRJoz3KLx-20" value="Tekitame tsüklimuutuja&lt;div&gt;&amp;nbsp;&quot;j&quot; mille sees on&lt;/div&gt;&lt;div&gt;&amp;nbsp;algväärtus 1&lt;/div&gt;" style="shape=parallelogram;perimeter=parallelogramPerimeter;whiteSpace=wrap;html=1;fixedSize=1;" vertex="1" parent="WIyWlLk6GJQsqaUBKTNV-1">
          <mxGeometry x="328" y="880" width="170.5" height="60" as="geometry" />
        </mxCell>
        <mxCell id="_-viLAe0_29VRJoz3KLx-25" value="" style="edgeStyle=orthogonalEdgeStyle;rounded=0;orthogonalLoop=1;jettySize=auto;html=1;" edge="1" parent="WIyWlLk6GJQsqaUBKTNV-1" source="_-viLAe0_29VRJoz3KLx-22" target="_-viLAe0_29VRJoz3KLx-24">
          <mxGeometry relative="1" as="geometry" />
        </mxCell>
        <mxCell id="_-viLAe0_29VRJoz3KLx-31" value="Jah" style="edgeLabel;html=1;align=center;verticalAlign=middle;resizable=0;points=[];" vertex="1" connectable="0" parent="_-viLAe0_29VRJoz3KLx-25">
          <mxGeometry x="-0.4286" y="-2" relative="1" as="geometry">
            <mxPoint as="offset" />
          </mxGeometry>
        </mxCell>
        <mxCell id="_-viLAe0_29VRJoz3KLx-29" style="edgeStyle=orthogonalEdgeStyle;rounded=0;orthogonalLoop=1;jettySize=auto;html=1;exitX=0;exitY=0.5;exitDx=0;exitDy=0;entryX=0.5;entryY=0;entryDx=0;entryDy=0;" edge="1" parent="WIyWlLk6GJQsqaUBKTNV-1" source="_-viLAe0_29VRJoz3KLx-22" target="_-viLAe0_29VRJoz3KLx-30">
          <mxGeometry relative="1" as="geometry">
            <mxPoint x="410" y="1360" as="targetPoint" />
            <Array as="points">
              <mxPoint x="295" y="1020" />
              <mxPoint x="295" y="1280" />
              <mxPoint x="410" y="1280" />
            </Array>
          </mxGeometry>
        </mxCell>
        <mxCell id="_-viLAe0_29VRJoz3KLx-22" value="Kas &quot;j&quot; om väiksem või&lt;div&gt;võrdne, kui eelmise while tsüklimuutuja while&lt;/div&gt;&lt;div&gt;&amp;nbsp;tsüklimuutuja &quot;i&quot;&lt;/div&gt;" style="rhombus;whiteSpace=wrap;html=1;" vertex="1" parent="WIyWlLk6GJQsqaUBKTNV-1">
          <mxGeometry x="315.31" y="980" width="195.37" height="80" as="geometry" />
        </mxCell>
        <mxCell id="_-viLAe0_29VRJoz3KLx-27" value="" style="edgeStyle=orthogonalEdgeStyle;rounded=0;orthogonalLoop=1;jettySize=auto;html=1;" edge="1" parent="WIyWlLk6GJQsqaUBKTNV-1" source="_-viLAe0_29VRJoz3KLx-24" target="_-viLAe0_29VRJoz3KLx-26">
          <mxGeometry relative="1" as="geometry" />
        </mxCell>
        <mxCell id="_-viLAe0_29VRJoz3KLx-24" value="Kirjutame olemasolevate konsoolireale Console.write abil sõne, mis sisaldab endas ühte visuaalset elementi &quot;_&quot;" style="shape=parallelogram;perimeter=parallelogramPerimeter;whiteSpace=wrap;html=1;fixedSize=1;" vertex="1" parent="WIyWlLk6GJQsqaUBKTNV-1">
          <mxGeometry x="324" y="1109" width="178" height="60" as="geometry" />
        </mxCell>
        <mxCell id="_-viLAe0_29VRJoz3KLx-28" style="edgeStyle=orthogonalEdgeStyle;rounded=0;orthogonalLoop=1;jettySize=auto;html=1;exitX=0.5;exitY=1;exitDx=0;exitDy=0;entryX=0.5;entryY=0;entryDx=0;entryDy=0;" edge="1" parent="WIyWlLk6GJQsqaUBKTNV-1" source="_-viLAe0_29VRJoz3KLx-26" target="_-viLAe0_29VRJoz3KLx-22">
          <mxGeometry relative="1" as="geometry">
            <Array as="points">
              <mxPoint x="414" y="1270" />
              <mxPoint x="530" y="1270" />
              <mxPoint x="530" y="1135" />
              <mxPoint x="531" y="1135" />
              <mxPoint x="531" y="960" />
              <mxPoint x="413" y="960" />
            </Array>
          </mxGeometry>
        </mxCell>
        <mxCell id="_-viLAe0_29VRJoz3KLx-26" value="Inkrementeerime&amp;nbsp;&lt;div&gt;muutujat &quot;j&quot; ühe võrra&lt;/div&gt;" style="shape=parallelogram;perimeter=parallelogramPerimeter;whiteSpace=wrap;html=1;fixedSize=1;" vertex="1" parent="WIyWlLk6GJQsqaUBKTNV-1">
          <mxGeometry x="335" y="1210" width="157" height="40" as="geometry" />
        </mxCell>
        <mxCell id="_-viLAe0_29VRJoz3KLx-30" value="inkrementeerime muutujat &quot;i&quot; ühe võrra" style="shape=parallelogram;perimeter=parallelogramPerimeter;whiteSpace=wrap;html=1;fixedSize=1;" vertex="1" parent="WIyWlLk6GJQsqaUBKTNV-1">
          <mxGeometry x="350" y="1360" width="120" height="60" as="geometry" />
        </mxCell>
        <mxCell id="_-viLAe0_29VRJoz3KLx-32" value="Lõpp" style="ellipse;whiteSpace=wrap;html=1;" vertex="1" parent="WIyWlLk6GJQsqaUBKTNV-1">
          <mxGeometry x="331" y="1470" width="168" height="50" as="geometry" />
        </mxCell>
      </root>
    </mxGraphModel>
  </diagram>
</mxfile>
